<svg width="40" height="40" viewBox="0 0 40 40" fill="none" xmlns="http://www.w3.org/2000/svg">
<g clip-path="url(#clip0_130_40)">
<path d="M20.1667 0.166626C9.121 0.166626 0.166687 9.12094 0.166687 20.1666C0.166687 31.2123 9.121 40.1666 20.1667 40.1666C31.2124 40.1666 40.1667 31.2123 40.1667 20.1666C40.1667 9.12094 31.2124 0.166626 20.1667 0.166626Z" fill="#29B6F6"/>
<path d="M30.1167 11.1666L26.3707 30.2926C26.3707 30.2926 26.2097 31.1666 25.1257 31.1666C24.5497 31.1666 24.2527 30.8926 24.2527 30.8926L16.1387 24.1596L12.1687 22.1586L7.07369 20.8036C7.07369 20.8036 6.16669 20.5416 6.16669 19.7916C6.16669 19.1666 7.09969 18.8686 7.09969 18.8686L28.4157 10.4006C28.4147 10.3996 29.0667 10.1656 29.5417 10.1666C29.8337 10.1666 30.1667 10.2916 30.1667 10.6666C30.1667 10.9166 30.1167 11.1666 30.1167 11.1666Z" fill="white"/>
<path d="M19.1667 26.6716L15.7407 30.0456C15.7407 30.0456 15.5917 30.1606 15.3927 30.1656C15.3237 30.1676 15.2497 30.1566 15.1737 30.1226L16.1377 24.1576L19.1667 26.6716Z" fill="#B0BEC5"/>
<path d="M26.0637 14.3626C25.8947 14.1426 25.5827 14.1026 25.3627 14.2696L12.1667 22.1666C12.1667 22.1666 14.2727 28.0586 14.5937 29.0786C14.9157 30.0996 15.1737 30.1236 15.1737 30.1236L16.1377 24.1586L25.9697 15.0626C26.1897 14.8956 26.2307 14.5826 26.0637 14.3626Z" fill="#CFD8DC"/>
</g>
<defs>
<clipPath id="clip0_130_40">
<rect width="40" height="40" fill="white"/>
</clipPath>
</defs>
</svg>
