<svg width="40" height="40" viewBox="0 0 40 40" fill="none" xmlns="http://www.w3.org/2000/svg">
<g clip-path="url(#clip0_53_210)">
<path d="M0 20C0 8.95433 8.95433 0 20 0C31.0457 0 40 8.95433 40 20C40 31.0457 31.0457 40 20 40C8.95433 40 0 31.0457 0 20Z" fill="#005FF9"/>
<path fill-rule="evenodd" clip-rule="evenodd" d="M8.33331 19.967C8.33331 13.5521 13.5668 8.33337 19.9998 8.33337C26.4328 8.33337 31.6664 13.5521 31.6664 19.967C31.6664 20.8757 31.5906 21.6114 31.4206 22.3498L31.4181 22.362C31.4177 22.3642 31.3334 22.7046 31.2868 22.8531C30.9985 23.7727 30.4765 24.5386 29.7771 25.068C29.0988 25.5815 28.2578 25.8643 27.4091 25.8643C27.3043 25.8643 27.1987 25.86 27.0953 25.8518C25.8901 25.7553 24.8305 25.1229 24.1806 24.1145C23.0631 25.235 21.5803 25.8515 19.9998 25.8515C16.7459 25.8515 14.0986 23.2117 14.0986 19.967C14.0986 16.7222 16.7459 14.0825 19.9998 14.0825C23.2537 14.0825 25.901 16.7222 25.901 19.967V21.8639C25.9058 22.9707 26.6506 23.4231 27.287 23.4743C27.9201 23.523 28.7626 23.1553 29.0561 21.9551C29.2009 21.2969 29.2745 20.6278 29.2745 19.967C29.2745 14.8673 25.1139 10.7185 19.9998 10.7185C14.8857 10.7185 10.7252 14.8673 10.7252 19.967C10.7252 25.0665 14.8857 29.2155 19.9998 29.2155C21.78 29.2155 23.5113 28.7085 25.0066 27.7493L25.0334 27.732L26.6051 29.5542L26.5713 29.5772C24.6291 30.901 22.3566 31.6006 19.9998 31.6006C13.5668 31.6006 8.33331 26.3818 8.33331 19.967ZM19.9998 23.4664C21.9348 23.4664 23.5091 21.8965 23.5091 19.967C23.5091 18.0374 21.9348 16.4677 19.9998 16.4677C18.0647 16.4677 16.4906 18.0374 16.4906 19.967C16.4906 21.8965 18.0647 23.4664 19.9998 23.4664Z" fill="#FF9E00"/>
</g>
<defs>
<clipPath id="clip0_53_210">
<rect width="40" height="40" fill="white"/>
</clipPath>
</defs>
</svg>
