<svg width="30" height="30" viewBox="0 0 30 30" fill="none" xmlns="http://www.w3.org/2000/svg">
  <path
    d="M28.3333 21.56V25.56C28.3348 25.9313 28.2588 26.2989 28.11 26.6391C27.9612 26.9794 27.7431 27.2848 27.4694 27.5358C27.1958 27.7869 26.8728 27.978 26.521 28.0969C26.1692 28.2159 25.7965 28.2601 25.4267 28.2267C21.3238 27.7809 17.3827 26.3789 13.92 24.1333C10.6984 22.0862 7.96711 19.3549 5.92 16.1333C3.66664 12.6549 2.26432 8.69466 1.82666 4.57333C1.79334 4.20462 1.83716 3.83301 1.95533 3.48216C2.0735 3.13132 2.26343 2.80892 2.51302 2.53549C2.76261 2.26207 3.0664 2.04361 3.40505 1.89403C3.7437 1.74444 4.10978 1.66701 4.48 1.66666H8.48C9.12707 1.6603 9.75439 1.88944 10.245 2.31137C10.7356 2.73331 11.0561 3.31926 11.1467 3.96C11.3155 5.24009 11.6286 6.49697 12.08 7.70666C12.2594 8.1839 12.2982 8.70255 12.1919 9.20117C12.0855 9.69979 11.8385 10.1575 11.48 10.52L9.78666 12.2133C11.6847 15.5514 14.4486 18.3153 17.7867 20.2133L19.48 18.52C19.8425 18.1615 20.3002 17.9145 20.7988 17.8081C21.2974 17.7018 21.8161 17.7406 22.2933 17.92C23.503 18.3714 24.7599 18.6845 26.04 18.8533C26.6877 18.9447 27.2792 19.2709 27.702 19.77C28.1249 20.269 28.3496 20.9061 28.3333 21.56Z"
    stroke="currentColor" 
    stroke-width="3" 
    stroke-linecap="round" 
    stroke-linejoin="round" 
    />
</svg>