<svg width="39" height="35" viewBox="0 0 39 35" fill="none" xmlns="http://www.w3.org/2000/svg">
<path d="M34.2333 4.68333C33.3821 3.83167 32.3714 3.15608 31.2589 2.69514C30.1465 2.2342 28.9541 1.99696 27.75 1.99696C26.5459 1.99696 25.3535 2.2342 24.2411 2.69514C23.1286 3.15608 22.1179 3.83167 21.2667 4.68333L19.5 6.45L17.7333 4.68333C16.0138 2.96385 13.6817 1.99785 11.25 1.99785C8.81827 1.99785 6.48615 2.96385 4.76666 4.68333C3.04717 6.40282 2.08118 8.73494 2.08118 11.1667C2.08118 13.5984 3.04717 15.9305 4.76666 17.65L19.5 32.3833L34.2333 17.65C35.085 16.7987 35.7606 15.788 36.2215 14.6756C36.6825 13.5632 36.9197 12.3708 36.9197 11.1667C36.9197 9.96252 36.6825 8.77017 36.2215 7.65774C35.7606 6.54531 35.085 5.53459 34.2333 4.68333Z" stroke="#6750A4" stroke-width="3.5" stroke-linecap="round" stroke-linejoin="round"/>
</svg>
